<?xml version="1.0" encoding="UTF-8" standalone="no"?>
<svg
   xmlns:dc="http://purl.org/dc/elements/1.1/"
   xmlns:cc="http://creativecommons.org/ns#"
   xmlns:rdf="http://www.w3.org/1999/02/22-rdf-syntax-ns#"
   xmlns:svg="http://www.w3.org/2000/svg"
   xmlns="http://www.w3.org/2000/svg"
   xmlns:sodipodi="http://sodipodi.sourceforge.net/DTD/sodipodi-0.dtd"
   xmlns:inkscape="http://www.inkscape.org/namespaces/inkscape"
   viewBox="0 0 1000 700"
   id="svg3331"
   version="1.1"
   inkscape:version="0.48.2 r9819"
   sodipodi:docname="type-hierarchy.svg"
   width="100%"
   height="100%">
  <metadata
     id="metadata3619">
    <rdf:RDF>
      <cc:Work
         rdf:about="">
        <dc:format>image/svg+xml</dc:format>
        <dc:type
           rdf:resource="http://purl.org/dc/dcmitype/StillImage" />
      </cc:Work>
    </rdf:RDF>
  </metadata>
  <defs
     id="defs3617" />
  <sodipodi:namedview
     pagecolor="#ffffff"
     bordercolor="#666666"
     borderopacity="1"
     objecttolerance="10"
     gridtolerance="10"
     guidetolerance="10"
     inkscape:pageopacity="0"
     inkscape:pageshadow="2"
     inkscape:window-width="1599"
     inkscape:window-height="1148"
     id="namedview3615"
     showgrid="false"
     inkscape:zoom="0.73019923"
     inkscape:cx="598.86559"
     inkscape:cy="441.35014"
     inkscape:window-x="1684"
     inkscape:window-y="0"
     inkscape:window-maximized="0"
     inkscape:current-layer="svg3331"
     showguides="false"
     fit-margin-top="0.2"
     fit-margin-left="0"
     fit-margin-right="0"
     fit-margin-bottom="0">
    <sodipodi:guide
       position="-6.4740347,16.928484"
       orientation="0,444"
       id="guide4665" />
    <sodipodi:guide
       position="443.8204,81.809618"
       orientation="-240,0"
       id="guide4667" />
    <sodipodi:guide
       position="443.8204,321.80962"
       orientation="0,-444"
       id="guide4669" />
    <sodipodi:guide
       position="-0.17959633,321.80962"
       orientation="240,0"
       id="guide4671" />
    <sodipodi:guide
       position="-0.17959633,81.809618"
       orientation="0,444"
       id="guide4673" />
    <sodipodi:guide
       position="443.8204,81.809618"
       orientation="-240,0"
       id="guide4675" />
    <sodipodi:guide
       position="443.8204,321.80962"
       orientation="0,-444"
       id="guide4677" />
    <sodipodi:guide
       position="-0.17959633,321.80962"
       orientation="240,0"
       id="guide4679" />
  </sodipodi:namedview>
  <g
     id="g3178"
     transform="matrix(1.7162684,0,0,0.87441225,-268.20453,-102.42008)">
    <rect
       style="fill:#e5e5e5"
       x="211.5"
       y="296.526"
       width="99"
       height="44"
       id="rect3180" />
    <rect
       style="fill:none;stroke:#000000;stroke-width:2"
       x="211.5"
       y="296.526"
       width="99"
       height="44"
       id="rect3182" />
  </g>
  <polygon
     id="polygon3335"
     points="669.542,325.982 592.753,354.837 515.964,325.982 592.753,297.128 "
     style="fill:#ffff99"
     transform="translate(-173.98036,-58.658594)" />
  <polygon
     id="polygon3337"
     points="669.542,325.982 592.753,354.837 515.964,325.982 592.753,297.128 "
     style="fill:none;stroke:#000000;stroke-width:2"
     transform="translate(-173.98036,-58.658594)" />
  <text
     id="text3339"
     y="271.22339"
     x="418.77264"
     style="font-size:12.80000019px;font-style:normal;font-weight:normal;text-anchor:middle;fill:#000000;font-family:sanserif">
    <tspan
       style="font-size:18px"
       id="tspan3341"
       y="271.22339"
       x="418.77264">node</tspan>
  </text>
  <polygon
     id="polygon3345"
     points="643.116,96.3846 719.905,67.5303 796.694,96.3846 719.905,125.239 "
     style="fill:#b3daff"
     transform="translate(-173.98036,-58.658594)" />
  <polygon
     id="polygon3347"
     points="643.116,96.3846 719.905,67.5303 796.694,96.3846 719.905,125.239 "
     style="fill:none;stroke:#000000;stroke-width:2"
     transform="translate(-173.98036,-58.658594)" />
  <text
     id="text3349"
     y="41.626934"
     x="545.9176"
     style="font-size:12.79983807px;font-style:normal;font-weight:normal;text-anchor:middle;fill:#000000;font-family:sanserif"
     transform="scale(1.0000126,0.9999874)">
    <tspan
       id="tspan3351"
       y="41.626934"
       x="545.9176"
       style="font-size:18px">item</tspan>
  </text>
  <polygon
     id="polygon3355"
     points="979.95,231.983 1065.12,199.981 1150.28,231.983 1065.12,263.985 "
     style="fill:#d8e5e5"
     transform="translate(-173.98036,-58.658594)" />
  <polygon
     id="polygon3357"
     points="979.95,231.983 1065.12,199.981 1150.28,231.983 1065.12,263.985 "
     style="fill:#ff5555;fill-opacity:1;stroke:#000000;stroke-width:2"
     transform="translate(-173.98036,-58.658594)" />
  <text
     id="text3359"
     y="177.2244"
     x="891.13965"
     style="font-size:12.80000019px;font-style:normal;font-weight:normal;text-anchor:middle;fill:#ffffff;font-family:sanserif">
    <tspan
       id="tspan3361"
       y="177.2244"
       x="891.13965"
       style="font-size:18px;fill:#ffffff">function(*)</tspan>
  </text>
  <text
     id="text3369"
     y="182.7494"
     x="179.48264"
     style="font-size:12.80000019px;font-style:normal;font-weight:normal;text-anchor:middle;fill:#000000;font-family:sanserif">
    <tspan
       id="tspan3371"
       y="182.7494"
       x="179.48264"
       style="font-size:18px">xs:anyAtomicType</tspan>
  </text>
  <g
     id="g3373"
     style="stroke-width:8;stroke-miterlimit:4;stroke-dasharray:none"
     transform="translate(-173.98036,-58.658594)">
    <polygon
       style="fill:#90ee90;stroke-width:8;stroke-miterlimit:4;stroke-dasharray:none"
       points="743.58,325.982 824.271,295.662 904.961,325.982 824.271,356.303 "
       id="polygon3375" />
    <polygon
       style="fill:none;stroke:#000000;stroke-width:8;stroke-miterlimit:4;stroke-dasharray:none"
       points="743.58,325.982 824.271,295.662 904.961,325.982 824.271,356.303 "
       id="polygon3377" />
    <text
       style="font-size:12.80000019000000044px;font-style:normal;font-weight:normal;text-anchor:middle;fill:#000000;stroke-width:8;stroke-miterlimit:4;stroke-dasharray:none;font-family:sanserif"
       x="824.271"
       y="329.88199"
       id="text3379">
      <tspan
         x="824.271"
         y="329.88199"
         id="tspan3381"
         style="font-size:18px;stroke-width:8;stroke-miterlimit:4;stroke-dasharray:none">json-item</tspan>
    </text>
  </g>
  <line
     style="fill:none;stroke:#000000;stroke-width:2"
     x1="176.00262"
     y1="100.86541"
     x2="890.87964"
     y2="100.86541"
     id="line3383" />
  <g
     id="g3385"
     transform="translate(-173.98036,-58.658594)">
    <line
       style="fill:none;stroke:#000000;stroke-width:2"
       x1="719.96399"
       y1="135.95599"
       x2="720"
       y2="160"
       id="line3387" />
    <polygon
       style="fill:#000000"
       points="724.968,138.448 719.964,135.956 714.968,138.463 719.953,128.456 "
       id="polygon3389" />
    <polygon
       style="fill:none;stroke:#000000;stroke-width:2"
       points="724.968,138.448 719.964,135.956 714.968,138.463 719.953,128.456 "
       id="polygon3391" />
  </g>
  <g
     id="g3393"
     transform="translate(-173.98036,-58.658594)">
    <line
       style="fill:none;stroke:#000000;stroke-width:2"
       x1="351.409"
       y1="170.321"
       x2="351.46201"
       y2="213.408"
       id="line3395" />
    <polygon
       style="fill:#000000"
       points="356.412,172.815 351.409,170.321 346.412,172.827 351.4,162.821 "
       id="polygon3397" />
    <polygon
       style="fill:none;stroke:#000000;stroke-width:2"
       points="356.412,172.815 351.409,170.321 346.412,172.827 351.4,162.821 "
       id="polygon3399" />
  </g>
  <g
     id="g3401"
     transform="translate(-173.98036,-58.658594)">
    <line
       style="fill:none;stroke:#000000;stroke-width:2"
       x1="1064.65"
       y1="170.235"
       x2="1065.12"
       y2="200"
       id="line3403" />
    <polygon
       style="fill:#000000"
       points="1069.69,172.657 1064.65,170.235 1059.69,172.813 1064.53,162.736 "
       id="polygon3405" />
    <polygon
       style="fill:none;stroke:#000000;stroke-width:2"
       points="1069.69,172.657 1064.65,170.235 1059.69,172.813 1064.53,162.736 "
       id="polygon3407" />
  </g>
  <g
     id="g3409"
     transform="translate(-173.98036,-58.658594)">
    <line
       style="fill:none;stroke:#000000;stroke-width:2"
       x1="662.14001"
       y1="252.77901"
       x2="592.75403"
       y2="297.12799"
       id="line3411" />
    <polygon
       style="fill:#000000"
       points="662.726,258.338 662.14,252.779 657.34,249.912 668.459,248.74 "
       id="polygon3413" />
    <polygon
       style="fill:none;stroke:#000000;stroke-width:2"
       points="662.726,258.338 662.14,252.779 657.34,249.912 668.459,248.74 "
       id="polygon3415" />
  </g>
  <g
     id="g3417"
     transform="translate(-173.98036,-58.658594)">
    <line
       style="fill:none;stroke:#000000;stroke-width:2"
       x1="774.85797"
       y1="253.827"
       x2="824.27002"
       y2="295.66199"
       id="line3419" />
    <polygon
       style="fill:#000000"
       points="779.997,251.626 774.858,253.827 773.536,259.258 769.134,248.98 "
       id="polygon3421" />
    <polygon
       style="fill:none;stroke:#000000;stroke-width:2"
       points="779.997,251.626 774.858,253.827 773.536,259.258 769.134,248.98 "
       id="polygon3423" />
  </g>
  <g
     id="g3425"
     transform="translate(-173.98036,-58.658594)">
    <line
       style="fill:none;stroke:#000000;stroke-width:2"
       x1="351.46201"
       y1="253.408"
       x2="351.55801"
       y2="445.87799"
       id="line3427" />
    <line
       style="fill:none;stroke:#000000;stroke-width:2"
       x1="351.56799"
       y1="465.87799"
       x2="351.56601"
       y2="461.87799"
       id="line3429" />
    <line
       style="fill:none;stroke:#000000;stroke-width:2"
       x1="351.564"
       y1="459.21201"
       x2="351.56201"
       y2="455.21201"
       id="line3431" />
    <line
       style="fill:none;stroke:#000000;stroke-width:2"
       x1="351.561"
       y1="452.54501"
       x2="351.55899"
       y2="448.54501"
       id="line3433" />
  </g>
  <g
     id="g3435"
     transform="translate(-173.98036,-58.658594)">
    <line
       style="fill:none;stroke:#000000;stroke-width:2"
       x1="592.75403"
       y1="354.836"
       x2="592.37701"
       y2="547.26001"
       id="line3437" />
    <line
       style="fill:none;stroke:#000000;stroke-width:2"
       x1="592.33801"
       y1="567.26001"
       x2="592.34601"
       y2="563.26001"
       id="line3439" />
    <line
       style="fill:none;stroke:#000000;stroke-width:2"
       x1="592.35101"
       y1="560.59302"
       x2="592.35901"
       y2="556.59302"
       id="line3441" />
    <line
       style="fill:none;stroke:#000000;stroke-width:2"
       x1="592.36401"
       y1="553.92603"
       x2="592.37201"
       y2="549.92603"
       id="line3443" />
  </g>
  <g
     id="g3445"
     transform="translate(-173.98036,-58.658594)">
    <line
       style="fill:none;stroke:#000000;stroke-width:2"
       x1="1065.12"
       y1="263.966"
       x2="1065.21"
       y2="458.95999"
       id="line3447" />
    <line
       style="fill:none;stroke:#000000;stroke-width:2"
       x1="1065.22"
       y1="478.95999"
       x2="1065.22"
       y2="474.95999"
       id="line3449" />
    <line
       style="fill:none;stroke:#000000;stroke-width:2"
       x1="1065.21"
       y1="472.293"
       x2="1065.21"
       y2="468.293"
       id="line3451" />
    <line
       style="fill:none;stroke:#000000;stroke-width:2"
       x1="1065.21"
       y1="465.62601"
       x2="1065.21"
       y2="461.62601"
       id="line3453" />
  </g>
  <line
     style="fill:none;stroke:#000000;stroke-width:2"
     x1="650.28967"
     y1="297.6434"
     x2="650.28864"
     y2="493.39844"
     id="line3455" />
  <g
     id="g3459"
     transform="translate(-173.98036,-58.658594)">
    <rect
       id="rect3461"
       height="44"
       width="99"
       y="391.526"
       x="449"
       style="fill:#ffff99" />
    <rect
       id="rect3463"
       height="44"
       width="99"
       y="391.526"
       x="449"
       style="fill:none;stroke:#000000;stroke-width:2" />
  </g>
  <text
     id="text3465"
     y="360.8674"
     x="290.51962"
     style="font-size:12.80000019px;font-style:normal;font-weight:normal;text-anchor:start;fill:#000000;font-family:sanserif">
    <tspan
       style="font-size:18px"
       id="tspan3467"
       y="360.8674"
       x="290.51962">element</tspan>
  </text>
  <g
     id="g3471"
     transform="translate(-173.98036,-58.658594)">
    <rect
       id="rect3473"
       height="44"
       width="99"
       y="458.026"
       x="450.06201"
       style="fill:#ffff99" />
    <rect
       id="rect3475"
       height="44"
       width="99"
       y="458.026"
       x="450.06201"
       style="fill:none;stroke:#000000;stroke-width:2" />
  </g>
  <text
     id="text3477"
     y="426.3674"
     x="287.58163"
     style="font-size:12.80000019px;font-style:normal;font-weight:normal;text-anchor:start;fill:#000000;font-family:sanserif">
    <tspan
       style="font-size:18px"
       id="tspan3479"
       y="426.3674"
       x="287.58163">attribute</tspan>
  </text>
  <g
     id="g3483"
     transform="translate(-173.98036,-58.658594)">
    <rect
       id="rect3485"
       height="44"
       width="99"
       y="296.526"
       x="211.5"
       style="fill:#e5e5e5" />
    <rect
       id="rect3487"
       height="44"
       width="99"
       y="296.526"
       x="211.5"
       style="fill:none;stroke:#000000;stroke-width:2" />
  </g>
  <text
     id="text3489"
     y="263.8674"
     x="50.019638"
     style="font-size:12.80000019px;font-style:normal;font-weight:normal;text-anchor:start;fill:#000000;font-family:sanserif">
    <tspan
       style="font-size:18px"
       id="tspan3491"
       y="263.8674"
       x="50.019638">xs:string</tspan>
  </text>
  <g
     id="g3495"
     transform="translate(-173.98036,-58.658594)">
    <rect
       id="rect3497"
       height="44"
       width="99"
       y="362.026"
       x="211.5"
       style="fill:#e5e5e5" />
    <rect
       id="rect3499"
       height="44"
       width="99"
       y="362.026"
       x="211.5"
       style="fill:none;stroke:#000000;stroke-width:2" />
  </g>
  <text
     id="text3501"
     y="329.79141"
     x="38.495636"
     style="font-size:12.80000019px;font-style:normal;font-weight:normal;text-anchor:start;fill:#000000;font-family:sanserif">
    <tspan
       style="font-size:18px"
       id="tspan3503"
       y="329.79141"
       x="38.495636">xs:decimal</tspan>
  </text>
  <g
     id="g3505"
     transform="translate(-173.98036,-58.658594)">
    <line
       style="fill:none;stroke:#000000;stroke-width:2"
       x1="549.55798"
       y1="410.63501"
       x2="584.36902"
       y2="410.63501"
       id="line3507" />
    <polygon
       style="fill:#000000"
       points="581.869,415.635 584.369,410.635 581.869,405.635 591.869,410.635 "
       id="polygon3509" />
    <polygon
       style="fill:none;stroke:#000000;stroke-width:2"
       points="581.869,415.635 584.369,410.635 581.869,405.635 591.869,410.635 "
       id="polygon3511" />
  </g>
  <g
     id="g3513"
     transform="translate(-173.98036,-58.658594)">
    <line
       style="fill:none;stroke:#000000;stroke-width:2"
       x1="550.26501"
       y1="479.22501"
       x2="583.5"
       y2="479.16199"
       id="line3515" />
    <polygon
       style="fill:#000000"
       points="581.009,484.167 583.5,479.162 580.991,474.167 591,479.148 "
       id="polygon3517" />
    <polygon
       style="fill:none;stroke:#000000;stroke-width:2"
       points="581.009,484.167 583.5,479.162 580.991,474.167 591,479.148 "
       id="polygon3519" />
  </g>
  <g
     id="g3521"
     transform="matrix(1.0749439,0,0,1,-200.26799,-58.658594)">
    <line
       style="fill:none;stroke:#000000;stroke-width:2"
       x1="313"
       y1="319.526"
       x2="342.26401"
       y2="319.526"
       id="line3523" />
    <polygon
       style="fill:#000000"
       points="342.264,319.526 339.764,314.526 349.764,319.526 339.764,324.526 "
       id="polygon3525" />
    <polygon
       style="fill:none;stroke:#000000;stroke-width:2"
       points="342.264,319.526 339.764,314.526 349.764,319.526 339.764,324.526 "
       id="polygon3527" />
  </g>
  <g
     id="g3529"
     transform="matrix(1.0248896,0,0,1,-182.68764,-58.658594)">
    <line
       style="fill:none;stroke:#000000;stroke-width:2"
       x1="312"
       y1="382.526"
       x2="341.26401"
       y2="382.526"
       id="line3531" />
    <polygon
       style="fill:#000000"
       points="338.764,377.526 348.764,382.526 338.764,387.526 341.264,382.526 "
       id="polygon3533" />
    <polygon
       style="fill:none;stroke:#000000;stroke-width:2"
       points="338.764,377.526 348.764,382.526 338.764,387.526 341.264,382.526 "
       id="polygon3535" />
  </g>
  <polygon
     id="polygon3539"
     points="621.801,227.59 718.886,187.7 815.97,227.59 718.886,267.481 "
     style="fill:#b3daff"
     transform="translate(-173.98036,-58.658594)" />
  <polygon
     id="polygon3541"
     points="621.801,227.59 718.886,187.7 815.97,227.59 718.886,267.481 "
     style="fill:none;stroke:#000000;stroke-width:2"
     transform="translate(-173.98036,-58.658594)" />
  <text
     id="text3543"
     y="172.83141"
     x="544.90564"
     style="font-size:12.80000019px;font-style:normal;font-weight:normal;text-anchor:middle;fill:#000000;font-family:sanserif">
    <tspan
       id="tspan3545"
       y="172.83141"
       x="544.90564"
       style="font-size:18px">structured-item</tspan>
  </text>
  <g
     id="g3547"
     transform="translate(-173.98036,-58.658594)">
    <line
       style="fill:none;stroke:#000000;stroke-width:2"
       x1="718.90399"
       y1="169.14799"
       x2="718.88599"
       y2="187.7"
       id="line3549" />
    <polygon
       style="fill:#000000"
       points="723.902,171.653 718.904,169.148 713.902,171.643 718.912,161.648 "
       id="polygon3551" />
    <polygon
       style="fill:none;stroke:#000000;stroke-width:2"
       points="723.902,171.653 718.904,169.148 713.902,171.643 718.912,161.648 "
       id="polygon3553" />
  </g>
  <rect
     id="rect3557"
     height="44"
     width="99"
     y="364.74139"
     x="38.519638"
     style="fill:#90ee90;fill-opacity:1" />
  <rect
     id="rect3559"
     height="43.999989"
     width="99.000664"
     y="364.74139"
     x="38.519638"
     style="fill:#e5e5e5;fill-opacity:1;stroke:#000000;stroke-width:8;stroke-miterlimit:4;stroke-dasharray:none" />
  <text
     style="font-size:12.80000019px;font-style:normal;font-weight:normal;text-anchor:start;fill:#000000;font-family:sanserif"
     x="60.957642"
     y="391.16739"
     id="text3561">
    <tspan
       x="60.957642"
       y="391.16739"
       id="tspan3563"
       style="font-size:18px;fill:#000000">jn:null</tspan>
  </text>
  <g
     id="g3565"
     transform="translate(-173.98036,-58.658594)">
    <line
       style="fill:none;stroke:#000000;stroke-width:2"
       x1="311.5"
       y1="445.39999"
       x2="341.271"
       y2="444.26901"
       id="line3567" />
    <polygon
       style="fill:#000000"
       points="338.962,449.361 341.271,444.269 338.583,439.368 348.766,443.985 "
       id="polygon3569" />
    <polygon
       style="fill:none;stroke:#000000;stroke-width:2"
       points="338.962,449.361 341.271,444.269 338.583,439.368 348.766,443.985 "
       id="polygon3571" />
  </g>
  <g
     id="g3575"
     transform="translate(-173.98036,-58.658594)">
    <line
       id="line3577"
       y2="414.604"
       x2="813.875"
       y1="414.52499"
       x1="779.72101"
       style="fill:none;stroke:#000000;stroke-width:2" />
    <polygon
       id="polygon3579"
       points="811.386,409.598 821.375,414.621 811.363,419.598 813.875,414.604 "
       style="fill:#000000" />
    <polygon
       id="polygon3581"
       points="811.386,409.598 821.375,414.621 811.363,419.598 813.875,414.604 "
       style="fill:none;stroke:#000000;stroke-width:2" />
  </g>
  <g
     style="stroke-width:8;stroke-miterlimit:4;stroke-dasharray:none"
     id="g3585"
     transform="translate(-173.98036,-58.658594)">
    <rect
       style="fill:#90ee90;stroke-width:8;stroke-miterlimit:4;stroke-dasharray:none"
       x="679"
       y="391.526"
       width="99"
       height="44"
       id="rect3587" />
    <rect
       style="fill:none;stroke:#000000;stroke-width:8;stroke-miterlimit:4;stroke-dasharray:none"
       x="679"
       y="391.526"
       width="99"
       height="44"
       id="rect3589" />
  </g>
  <text
     style="font-size:12.80000019px;font-style:normal;font-weight:normal;text-anchor:start;fill:#000000;stroke-width:4.23873854;stroke-miterlimit:4;stroke-dasharray:none;font-family:sanserif"
     x="529.51965"
     y="357.8674"
     id="text3591">
    <tspan
       style="font-size:18px;stroke-width:4.23873854;stroke-miterlimit:4;stroke-dasharray:none"
       x="529.51965"
       y="357.8674"
       id="tspan3593">array</tspan>
  </text>
  <g
     id="g3597"
     style="stroke-width:8;stroke-miterlimit:4;stroke-dasharray:none"
     transform="translate(-173.98036,-58.658594)">
    <rect
       id="rect3599"
       height="44"
       width="99"
       y="459.53201"
       x="681.06201"
       style="fill:#90ee90;stroke-width:8;stroke-miterlimit:4;stroke-dasharray:none" />
    <rect
       id="rect3601"
       height="44"
       width="99"
       y="459.53201"
       x="681.06201"
       style="fill:none;stroke:#000000;stroke-width:8;stroke-miterlimit:4;stroke-dasharray:none" />
  </g>
  <text
     id="text3603"
     y="426.87341"
     x="527.58167"
     style="font-size:12.80000019px;font-style:normal;font-weight:normal;text-anchor:start;fill:#000000;font-family:sanserif">
    <tspan
       id="tspan3605"
       y="426.87341"
       x="527.58167"
       style="font-size:18px">object</tspan>
  </text>
  <g
     id="g3607"
     transform="translate(-173.98036,-58.658594)">
    <line
       id="line3609"
       y2="481.07401"
       x2="814.05701"
       y1="481.08401"
       x1="781.48901"
       style="fill:none;stroke:#000000;stroke-width:2" />
    <polygon
       id="polygon3611"
       points="811.555,476.075 821.557,481.072 811.558,486.075 814.057,481.074 "
       style="fill:#000000" />
    <polygon
       id="polygon3613"
       points="811.555,476.075 821.557,481.072 811.558,486.075 814.057,481.074 "
       style="fill:none;stroke:#000000;stroke-width:2" />
  </g>
  <g
     id="g3669"
     transform="matrix(0.30401785,0,0,0.70678703,-84.973308,215.77686)">
    <rect
       style="fill:#ffff99"
       x="449"
       y="391.526"
       width="99"
       height="44"
       id="rect3671" />
    <rect
       style="fill:none;stroke:#000000;stroke-width:2"
       x="449"
       y="391.526"
       width="99"
       height="44"
       id="rect3673" />
  </g>
  <text
     style="font-size:12.80000019px;font-style:normal;font-weight:normal;text-anchor:start;fill:#000000;font-family:sanserif"
     x="95.3479"
     y="511.4231"
     id="text3675">
    <tspan
       x="95.3479"
       y="511.4231"
       id="tspan3677">Node types</tspan>
  </text>
  <g
     transform="matrix(0.30401785,0,0,0.70678703,-84.973308,257.13682)"
     id="g3708"
     style="fill:#90ee90;fill-opacity:1">
    <rect
       id="rect3710"
       height="44"
       width="99"
       y="391.526"
       x="449"
       style="fill:#90ee90;fill-opacity:1" />
    <rect
       id="rect3712"
       height="44"
       width="99"
       y="391.526"
       x="449"
       style="fill:#90ee90;fill-opacity:1;stroke:#000000;stroke-width:2" />
  </g>
  <text
     id="text3737"
     y="552.78308"
     x="93.896667"
     style="font-size:12.80000019px;font-style:normal;font-weight:normal;text-anchor:start;fill:#000000;font-family:sanserif">
    <tspan
       id="tspan3739"
       y="552.78308"
       x="93.896667">JSON item types</tspan>
  </text>
  <g
     style="fill:#e5e5e5;fill-opacity:1"
     id="g3765"
     transform="matrix(0.30401785,0,0,0.70678703,-84.973308,297.77117)">
    <rect
       style="fill:#e5e5e5;fill-opacity:1"
       x="449"
       y="391.526"
       width="99"
       height="44"
       id="rect3767" />
    <rect
       style="fill:#e5e5e5;fill-opacity:1;stroke:#000000;stroke-width:2"
       x="449"
       y="391.526"
       width="99"
       height="44"
       id="rect3769" />
  </g>
  <text
     style="font-size:12.80000019px;font-style:normal;font-weight:normal;text-anchor:start;fill:#000000;font-family:sanserif"
     x="92.445427"
     y="591.2406"
     id="text3771">
    <tspan
       x="92.445427"
       y="591.2406"
       id="tspan3773">Built-in atomic types</tspan>
  </text>
  <g
     transform="matrix(0.30401785,0,0,0.70678703,-84.973308,336.95429)"
     id="g3777"
     style="fill:#ff5555;fill-opacity:1">
    <rect
       id="rect3779"
       height="44"
       width="99"
       y="391.526"
       x="449"
       style="fill:#ff5555;fill-opacity:1" />
    <rect
       id="rect3781"
       height="44"
       width="99"
       y="391.526"
       x="449"
       style="fill:#ff5555;fill-opacity:1;stroke:#000000;stroke-width:2" />
  </g>
  <text
     id="text3783"
     y="631.14935"
     x="91.719818"
     style="font-size:12.80000019px;font-style:normal;font-weight:normal;text-anchor:start;fill:#000000;font-family:sanserif">
    <tspan
       id="tspan3785"
       y="631.14935"
       x="91.719818">Function types</tspan>
  </text>
  <polygon
     style="fill:none;stroke:#000000;stroke-width:8;stroke-miterlimit:4;stroke-dasharray:none"
     points="621.801,227.59 718.886,187.7 815.97,227.59 718.886,267.481 "
     id="polygon3795"
     transform="translate(-173.98036,-58.658594)" />
  <polygon
     style="fill:#e5e5e5;fill-opacity:1"
     points="718.886,267.481 621.801,227.59 718.886,187.7 815.97,227.59 "
     id="polygon3799"
     transform="matrix(0.31331155,0,0,0.65357838,161.12638,402.94595)" />
  <polygon
     id="polygon3801"
     points="718.886,267.481 621.801,227.59 718.886,187.7 815.97,227.59 "
     style="fill:none;stroke:#000000;stroke-width:2"
     transform="matrix(0.31331155,0,0,0.65357838,161.12638,402.94595)" />
  <g
     transform="matrix(0.47496365,0,0,1.0011975,150.48905,199.11365)"
     id="g3803"
     style="fill:#e5e5e5;fill-opacity:1">
    <rect
       id="rect3805"
       height="44"
       width="99"
       y="391.526"
       x="449"
       style="fill:#e5e5e5;fill-opacity:1" />
    <rect
       id="rect3807"
       height="44"
       width="99"
       y="391.526"
       x="449"
       style="fill:#e5e5e5;fill-opacity:1;stroke:#000000;stroke-width:2" />
  </g>
  <text
     id="text3809"
     y="557.60083"
     x="446.29889"
     style="font-size:12.80000019px;font-style:normal;font-weight:normal;text-anchor:start;fill:#000000;font-family:sanserif">
    <tspan
       id="tspan3811"
       y="557.60083"
       x="446.29889">Abstract types</tspan>
  </text>
  <text
     style="font-size:12.80000019px;font-style:normal;font-weight:normal;text-anchor:start;fill:#000000;font-family:sanserif"
     x="440.14191"
     y="607.8833"
     id="text3813">
    <tspan
       x="440.14191"
       y="607.8833"
       id="tspan3815">Types defined by</tspan>
  </text>
  <text
     style="font-size:12.80000019px;font-style:normal;font-weight:normal;text-anchor:start;fill:#000000;font-family:sanserif"
     x="440.14191"
     y="623.27588"
     id="text3819">
    <tspan
       x="440.14191"
       y="623.27588"
       id="tspan3821">XDM 3.0 and JDM</tspan>
  </text>
  <g
     id="g4612"
     style="fill:#ffffff;stroke-width:10.75511591;stroke-miterlimit:4;stroke-dasharray:none"
     transform="matrix(0.55328613,0,0,1,256.58372,139.39266)">
    <rect
       id="rect4614"
       height="44"
       width="99"
       y="391.526"
       x="679"
       style="fill:#ffffff;stroke-width:10.75511591;stroke-miterlimit:4;stroke-dasharray:none" />
    <rect
       id="rect4616"
       height="44"
       width="99"
       y="391.526"
       x="679"
       style="fill:#ffffff;stroke:#000000;stroke-width:10.75511591;stroke-miterlimit:4;stroke-dasharray:none" />
  </g>
  <g
     transform="matrix(0.55328613,0,0,1,255.55755,196.85831)"
     style="fill:#ffffff;stroke-width:2.84925795;stroke-miterlimit:4;stroke-dasharray:none"
     id="g4651">
    <rect
       style="fill:#ffffff;stroke-width:2.84925795;stroke-miterlimit:4;stroke-dasharray:none"
       x="679"
       y="391.526"
       width="99"
       height="44"
       id="rect4653" />
    <rect
       style="fill:#ffffff;stroke:#000000;stroke-width:2.84925795;stroke-miterlimit:4;stroke-dasharray:none"
       x="679"
       y="391.526"
       width="99"
       height="44"
       id="rect4655" />
  </g>
  <text
     style="font-size:12.80000019px;font-style:normal;font-weight:normal;text-anchor:start;fill:#000000;font-family:sanserif"
     x="701.8158"
     y="556.57465"
     id="text4657">
    <tspan
       x="701.8158"
       y="556.57465"
       id="tspan4659">Types introduced by JSONiq</tspan>
  </text>
  <text
     id="text4661"
     y="609.93561"
     x="701.8158"
     style="font-size:12.80000019px;font-style:normal;font-weight:normal;text-anchor:start;fill:#000000;font-family:sanserif">
    <tspan
       id="tspan4663"
       y="609.93561"
       x="701.8158">XDM types</tspan>
  </text>
  <g
     style="fill:#b3daff;fill-opacity:1"
     id="g4681"
     transform="matrix(0.30401785,0,0,0.70678703,-84.973308,380.05353)">
    <rect
       style="fill:#b3daff;fill-opacity:1"
       x="449"
       y="391.526"
       width="99"
       height="44"
       id="rect4683" />
    <rect
       style="fill:#b3daff;fill-opacity:1;stroke:#000000;stroke-width:2"
       x="449"
       y="391.526"
       width="99"
       height="44"
       id="rect4685" />
  </g>
  <text
     style="font-size:12.80000019px;font-style:normal;font-weight:normal;text-anchor:start;fill:#000000;font-family:sanserif"
     x="91.719818"
     y="674.2486"
     id="text4687">
    <tspan
       x="91.719818"
       y="674.2486"
       id="tspan4689">Top level types</tspan>
  </text>
</svg>
